<svg width="109" height="27" viewBox="0 0 109 27" fill="none" xmlns="http://www.w3.org/2000/svg">
<path d="M9.97227 25.6567C13.218 25.6567 15.6869 24.8557 17.3788 23.2535C19.0708 21.6514 19.9168 19.2706 19.9168 16.1112V11.6745C19.9168 8.51505 19.0708 6.13426 17.3788 4.53213C15.6869 2.92999 13.218 2.12892 9.97227 2.12892H1.1592C0.967729 2.12892 0.8125 2.28169 0.8125 2.47014V25.3155C0.8125 25.504 0.967729 25.6567 1.1592 25.6567H9.97227ZM5.40809 21.6234V6.16226H10.0413C11.8829 6.16226 13.2296 6.62722 14.0813 7.55713C14.933 8.48704 15.3589 9.81468 15.3589 11.5401V16.2456C15.3589 17.9486 14.933 19.2706 14.0813 20.2117C13.2296 21.1528 11.8829 21.6234 10.0413 21.6234H5.40809ZM31.5046 26.1273C33.0699 26.1273 34.359 25.8864 35.3719 25.4047C36.3848 24.9229 37.1962 24.3403 37.8062 23.6569C38.1582 23.2626 38.5547 22.7354 38.9958 22.0753C39.101 21.9178 39.0566 21.7062 38.8966 21.6027C38.8866 21.5962 38.8763 21.5903 38.8657 21.5849L35.9337 20.0886C35.7738 20.007 35.577 20.0595 35.4809 20.2094C35.0572 20.8704 34.6756 21.3529 34.336 21.657C33.7605 22.1724 32.8627 22.4301 31.6427 22.4301C30.4457 22.4301 29.4328 22.0716 28.6041 21.3545C27.7754 20.6375 27.338 19.7076 27.292 18.5648H39.2154C39.5146 18.5648 39.7571 18.3261 39.7571 18.0316V17.1195C39.7571 15.4165 39.4119 13.9208 38.7213 12.6324C38.0307 11.344 37.0638 10.3357 35.8208 9.60741C34.5777 8.87917 33.116 8.51505 31.4355 8.51505C29.7321 8.51505 28.2358 8.86796 26.9467 9.5738C25.6576 10.2796 24.6562 11.2768 23.9426 12.5652C23.229 13.8536 22.8722 15.3717 22.8722 17.1195V17.5228C22.8722 19.2706 23.2347 20.7887 23.9599 22.0772C24.685 23.3656 25.6979 24.3627 26.9985 25.0686C28.2991 25.7744 29.8011 26.1273 31.5046 26.1273ZM27.3265 15.4053C27.4876 14.4418 27.9135 13.6688 28.6041 13.0862C29.2947 12.5036 30.227 12.2123 31.401 12.2123C32.529 12.2123 33.444 12.5036 34.1461 13.0862C34.8482 13.6688 35.2453 14.4418 35.3374 15.4053H27.3265ZM47.545 25.3155V15.8759H56.5227V25.3155C56.5227 25.504 56.6779 25.6567 56.8694 25.6567H60.734C60.9254 25.6567 61.0806 25.504 61.0806 25.3155V2.47014C61.0806 2.28169 60.9254 2.12892 60.734 2.12892H56.8694C56.6779 2.12892 56.5227 2.28169 56.5227 2.47014V11.8426H47.545V2.47014C47.545 2.28169 47.3898 2.12892 47.1983 2.12892H43.3338C43.1424 2.12892 42.9871 2.28169 42.9871 2.47014V25.3155C42.9871 25.504 43.1424 25.6567 43.3338 25.6567H47.1983C47.3898 25.6567 47.545 25.504 47.545 25.3155ZM68.5323 0.999643L69.6996 1.65977C70.1301 1.90321 70.3956 2.35457 70.3956 2.84321V4.15209C70.3956 4.64073 70.1301 5.09208 69.6996 5.33552L68.5323 5.99565C68.1045 6.23757 67.5783 6.23757 67.1505 5.99565L65.9832 5.33552C65.5527 5.09208 65.2873 4.64073 65.2873 4.15209V2.84321C65.2873 2.35457 65.5527 1.90321 65.9832 1.65977L67.1505 0.999643C67.5783 0.757728 68.1045 0.757728 68.5323 0.999643ZM69.9751 25.3155V9.32682C69.9751 9.13837 69.8199 8.9856 69.6284 8.9856H65.9711C65.7796 8.9856 65.6244 9.13837 65.6244 9.32682V25.3155C65.6244 25.504 65.7796 25.6567 65.9711 25.6567H69.6284C69.8199 25.6567 69.9751 25.504 69.9751 25.3155ZM85.2315 25.4201L90.4638 9.43143C90.5225 9.25206 90.4224 9.05981 90.2401 9.00204C90.2058 8.99115 90.1699 8.9856 90.1338 8.9856H86.2438C86.0892 8.9856 85.9533 9.08627 85.9105 9.23244L82.0119 22.5645H81.3903L77.4916 9.23244C77.4488 9.08627 77.313 8.9856 77.1584 8.9856H73.2684C73.0769 8.9856 72.9217 9.13837 72.9217 9.32682C72.9217 9.36233 72.9273 9.39763 72.9383 9.43143L78.1707 25.4201C78.2169 25.5611 78.3502 25.6567 78.5007 25.6567H84.9015C85.052 25.6567 85.1853 25.5611 85.2315 25.4201ZM100.747 26.1273C102.313 26.1273 103.602 25.8864 104.615 25.4047C105.627 24.9229 106.439 24.3403 107.049 23.6569C107.401 23.2626 107.797 22.7354 108.238 22.0753C108.344 21.9178 108.299 21.7062 108.139 21.6027C108.129 21.5962 108.119 21.5903 108.108 21.5849L105.176 20.0886C105.016 20.007 104.82 20.0595 104.724 20.2094C104.3 20.8704 103.918 21.3529 103.579 21.657C103.003 22.1724 102.105 22.4301 100.885 22.4301C99.6884 22.4301 98.6755 22.0716 97.8468 21.3545C97.0181 20.6375 96.5807 19.7076 96.5347 18.5648H98.219H100.605H108.458C108.757 18.5648 109 18.3261 109 18.0316V17.1195C109 15.4165 108.655 13.9208 107.964 12.6324C107.273 11.344 106.307 10.3357 105.063 9.60741C103.82 8.87917 102.359 8.51505 100.678 8.51505C98.9748 8.51505 97.4785 8.86796 96.1894 9.5738C94.9003 10.2796 93.8989 11.2768 93.1853 12.5652C92.4717 13.8536 92.1149 15.3717 92.1149 17.1195V17.5228C92.1149 19.2706 92.4775 20.7887 93.2026 22.0772C93.9277 23.3656 94.9405 24.3627 96.2411 25.0686C97.5418 25.7744 99.0438 26.1273 100.747 26.1273ZM96.5692 15.4053C96.7303 14.4418 97.1562 13.6688 97.8468 13.0862C98.5374 12.5036 99.4697 12.2123 100.644 12.2123C101.772 12.2123 102.687 12.5036 103.389 13.0862C104.091 13.6688 104.488 14.4418 104.58 15.4053H96.5692Z" fill="white"/>
</svg>
